<svg width="20" height="20" viewBox="0 0 20 20" fill="none" xmlns="http://www.w3.org/2000/svg">
<g id="business and finance/statistic-board">
<path id="Vector" d="M2.39044 15.9428L2.744 15.5893L2.39044 15.9428C2.64049 16.1929 2.97963 16.3333 3.33325 16.3333H16.6666C17.0202 16.3333 17.3593 16.1929 17.6094 15.9428C17.8594 15.6928 17.9999 15.3536 17.9999 15V5C17.9999 4.64638 17.8594 4.30724 17.6094 4.05719C17.3593 3.80714 17.0202 3.66667 16.6666 3.66667H3.33325C2.97963 3.66667 2.64049 3.80714 2.39044 4.05719C2.14039 4.30724 1.99992 4.64638 1.99992 5V15C1.99992 15.3536 2.14039 15.6928 2.39044 15.9428ZM3.33325 3H16.6666C17.197 3 17.7057 3.21071 18.0808 3.58579C18.4559 3.96086 18.6666 4.46957 18.6666 5V15C18.6666 15.5304 18.4559 16.0391 18.0808 16.4142C17.7057 16.7893 17.197 17 16.6666 17H3.33325C2.80282 17 2.29411 16.7893 1.91904 16.4142C1.54397 16.0391 1.33325 15.5304 1.33325 15V5C1.33325 4.46957 1.54397 3.96086 1.91904 3.58579C2.29411 3.21071 2.80282 3 3.33325 3ZM6.99992 10V13.3333C6.99992 13.4217 6.9648 13.5065 6.90229 13.569C6.83978 13.6315 6.75499 13.6667 6.66658 13.6667C6.57818 13.6667 6.49339 13.6315 6.43088 13.569C6.36837 13.5065 6.33325 13.4217 6.33325 13.3333V10C6.33325 9.91159 6.36837 9.82681 6.43088 9.7643C6.49339 9.70179 6.57818 9.66667 6.66658 9.66667C6.75499 9.66667 6.83977 9.70179 6.90229 9.7643C6.9648 9.82681 6.99992 9.91159 6.99992 10ZM10.3333 8.33333V13.3333C10.3333 13.4217 10.2981 13.5065 10.2356 13.569C10.1731 13.6315 10.0883 13.6667 9.99992 13.6667C9.91151 13.6667 9.82673 13.6315 9.76422 13.569C9.7017 13.5065 9.66658 13.4217 9.66658 13.3333V8.33333C9.66658 8.24493 9.7017 8.16014 9.76422 8.09763C9.82673 8.03512 9.91151 8 9.99992 8C10.0883 8 10.1731 8.03512 10.2356 8.09763C10.2981 8.16014 10.3333 8.24493 10.3333 8.33333ZM13.6666 13.3333C13.6666 13.4217 13.6315 13.5065 13.569 13.569C13.5064 13.6315 13.4217 13.6667 13.3333 13.6667C13.2448 13.6667 13.1601 13.6315 13.0976 13.569C13.035 13.5065 12.9999 13.4217 12.9999 13.3333V6.66667C12.9999 6.57826 13.035 6.49348 13.0975 6.43096C13.1601 6.36845 13.2448 6.33333 13.3333 6.33333C13.4217 6.33333 13.5064 6.36845 13.569 6.43096C13.6315 6.49348 13.6666 6.57826 13.6666 6.66667V13.3333Z" fill="black" stroke="#EDBABE"/>
</g>
</svg>
