<svg width="24" height="24" viewBox="0 0 24 24" fill="none" xmlns="http://www.w3.org/2000/svg">
<g id="arrow/left-md">
<path id="Vector" d="M4.06048 13.3535L8.34988 17.6429C8.43938 17.7369 8.48885 17.8621 8.48772 17.992C8.48658 18.1231 8.434 18.2485 8.3413 18.3412C8.24859 18.434 8.12319 18.4865 7.99209 18.4877C7.86219 18.4888 7.737 18.4393 7.64299 18.3498L1.64664 12.3535C1.64662 12.3535 1.6466 12.3534 1.64658 12.3534C1.55288 12.2597 1.50024 12.1325 1.50024 12C1.50024 11.8674 1.55288 11.7403 1.64658 11.6465C1.6466 11.6465 1.64662 11.6465 1.64664 11.6465L7.64298 5.65014C7.737 5.56063 7.86219 5.51116 7.99209 5.51229C8.12319 5.51343 8.24859 5.56601 8.3413 5.65872C8.434 5.75142 8.48658 5.87683 8.48772 6.00792C8.48885 6.13782 8.43938 6.26302 8.34987 6.35703L4.06048 10.6464L3.20692 11.5H4.41403H22C22.1326 11.5 22.2598 11.5527 22.3536 11.6464C22.4474 11.7402 22.5 11.8674 22.5 12C22.5 12.1326 22.4474 12.2598 22.3536 12.3535C22.2598 12.4473 22.1326 12.5 22 12.5H4.41403H3.20692L4.06048 13.3535Z" fill="black" stroke="white"/>
</g>
</svg>
