<svg width="24" height="24" viewBox="0 0 24 24" fill="none" xmlns="http://www.w3.org/2000/svg">
<g id="interface/home">
<path id="Vector" d="M12.28 2.58527L12.2803 2.58544L20.28 7.98526C20.3478 8.03108 20.4033 8.09284 20.4416 8.1651C20.48 8.23737 20.5 8.31795 20.5 8.39976V8.40002V21C20.5 21.1326 20.4473 21.2598 20.3536 21.3536C20.2598 21.4473 20.1326 21.5 20 21.5H4C3.86739 21.5 3.74021 21.4473 3.64645 21.3536C3.55268 21.2598 3.5 21.1326 3.5 21L3.5 8.40002L3.5 8.39977C3.49996 8.31795 3.52 8.23737 3.55835 8.1651C3.59666 8.09293 3.65207 8.03124 3.71974 7.98544C3.71982 7.98538 3.71991 7.98532 3.72 7.98527L11.7197 2.58544L11.72 2.58527C11.8027 2.52938 11.9002 2.49951 12 2.49951C12.0998 2.49951 12.1973 2.52938 12.28 2.58527ZM14 20.5H14.5V20V14V13.5H14H10H9.5V14V20V20.5H10H14ZM19 20.5H19.5V20V8.93202V8.66627L19.2797 8.51759L12.2797 3.79259L12 3.60377L11.7203 3.79259L4.72026 8.51759L4.5 8.66627V8.93202V20V20.5H5H8H8.5V20V13C8.5 12.8674 8.55268 12.7402 8.64645 12.6465C8.74022 12.5527 8.86739 12.5 9 12.5H15C15.1326 12.5 15.2598 12.5527 15.3536 12.6465C15.4473 12.7402 15.5 12.8674 15.5 13V20V20.5H16H19Z" fill="black" stroke="white"/>
</g>
</svg>
