<svg width="20" height="20" viewBox="0 0 20 20" fill="none" xmlns="http://www.w3.org/2000/svg">
<g id="file/inbox">
<path id="Vector" d="M4.16667 5.33337H3.66667V5.83337V17.5V18H4.16667H15.8333H16.3333V17.5V5.83337V5.33337H15.8333H4.16667ZM16.9024 4.76434L17.2559 4.41078L16.9024 4.76434C16.9649 4.82685 17 4.91163 17 5.00004V18.3334C17 18.4218 16.9649 18.5066 16.9024 18.5691C16.8399 18.6316 16.7551 18.6667 16.6667 18.6667H3.33333C3.24493 18.6667 3.16014 18.6316 3.09763 18.5691C3.03512 18.5066 3 18.4218 3 18.3334V5.00004C3 4.91163 3.03512 4.82685 3.09763 4.76434L2.74577 4.41248L3.09763 4.76434C3.16014 4.70183 3.24493 4.66671 3.33333 4.66671H16.6667C16.7551 4.66671 16.8399 4.70183 16.9024 4.76434ZM7.83333 9.16671V9.66671H8.33333H11.6667H12.1667V9.16671V8.33337C12.1667 8.24497 12.2018 8.16018 12.2643 8.09767C12.3268 8.03516 12.4116 8.00004 12.5 8.00004C12.5884 8.00004 12.6732 8.03516 12.7357 8.09767C12.7982 8.16018 12.8333 8.24497 12.8333 8.33337V10C12.8333 10.0884 12.7982 10.1732 12.7357 10.2357C12.6732 10.2983 12.5884 10.3334 12.5 10.3334H7.5C7.41159 10.3334 7.32681 10.2983 7.2643 10.2357C7.20179 10.1732 7.16667 10.0884 7.16667 10V8.33337C7.16667 8.24497 7.20179 8.16018 7.2643 8.09767C7.32681 8.03516 7.41159 8.00004 7.5 8.00004C7.5884 8.00004 7.67319 8.03516 7.7357 8.09767C7.79821 8.16018 7.83333 8.24497 7.83333 8.33337V9.16671ZM15 1.33337C15.0884 1.33337 15.1732 1.36849 15.2357 1.43101C15.2982 1.49352 15.3333 1.5783 15.3333 1.66671C15.3333 1.75511 15.2982 1.8399 15.2357 1.90241C15.1732 1.96492 15.0884 2.00004 15 2.00004H5C4.91159 2.00004 4.82681 1.96492 4.7643 1.90241C4.70179 1.8399 4.66667 1.75511 4.66667 1.66671C4.66667 1.5783 4.70179 1.49352 4.7643 1.43101C4.82681 1.36849 4.91159 1.33337 5 1.33337H15Z" fill="black" stroke="#989898"/>
</g>
</svg>
