<svg width="20" height="20" viewBox="0 0 20 20" fill="none" xmlns="http://www.w3.org/2000/svg">
<g id="interface/date">
<path id="Vector" d="M13.6667 4.16663V4.66663H14.1667H17.5001C17.5885 4.66663 17.6733 4.70175 17.7358 4.76426C17.7983 4.82677 17.8334 4.91155 17.8334 4.99996V17.5C17.8334 17.5884 17.7983 17.6732 17.7358 17.7357C17.6733 17.7982 17.5885 17.8333 17.5001 17.8333H2.50008C2.41168 17.8333 2.32689 17.7982 2.26438 17.7357C2.20187 17.6732 2.16675 17.5884 2.16675 17.5V4.99996C2.16675 4.91155 2.20187 4.82677 2.26438 4.76426C2.32689 4.70175 2.41168 4.66663 2.50008 4.66663H5.83342H6.33342V4.16663V2.49996C6.33342 2.41155 6.36853 2.32677 6.43105 2.26426C6.49356 2.20174 6.57834 2.16663 6.66675 2.16663C6.75515 2.16663 6.83994 2.20174 6.90245 2.26426C6.96496 2.32677 7.00008 2.41155 7.00008 2.49996V4.16663V4.66663H7.50008H12.5001H13.0001V4.16663V2.49996C13.0001 2.41155 13.0352 2.32677 13.0977 2.26426C13.1602 2.20174 13.245 2.16663 13.3334 2.16663C13.4218 2.16663 13.5066 2.20175 13.5691 2.26426C13.6316 2.32677 13.6667 2.41155 13.6667 2.49996V4.16663ZM3.33341 5.33329H2.83341V5.83329V8.33329V8.83329H3.33341H16.6667H17.1667V8.33329V5.83329V5.33329H16.6667H3.33341ZM3.33341 9.49996H2.83341V9.99996V16.6666V17.1666H3.33341H16.6667H17.1667V16.6666V9.99996V9.49996H16.6667H3.33341Z" fill="black" stroke="#989898"/>
</g>
</svg>
