<svg width="18" height="20" viewBox="0 0 18 20" fill="none" xmlns="http://www.w3.org/2000/svg">
<g id="music/play">
<path id="Vector" d="M6.01833 3.05593L6.01848 3.05603L16.0184 9.72267C16.0185 9.72268 16.0185 9.72269 16.0185 9.72269C16.0641 9.75313 16.1015 9.79436 16.1274 9.84273L16.5683 9.60682L16.1274 9.84273C16.1533 9.89111 16.1669 9.94513 16.1669 10C16.1669 10.0549 16.1533 10.1089 16.1274 10.1573C16.1015 10.2056 16.0641 10.2469 16.0185 10.2773C16.0185 10.2773 16.0185 10.2773 16.0184 10.2773L6.01848 16.944L6.01833 16.9441C5.96813 16.9776 5.90978 16.9968 5.84951 16.9997C5.78923 17.0027 5.72929 16.9892 5.67608 16.9607C5.62287 16.9322 5.57839 16.8899 5.54738 16.8381C5.51637 16.7863 5.49999 16.7271 5.5 16.6667V16.6667V3.33334V3.33326C5.49999 3.27291 5.51636 3.2137 5.54738 3.16192C5.57839 3.11015 5.62287 3.06777 5.67608 3.0393C5.72929 3.01083 5.78923 2.99734 5.84951 3.00027C5.90978 3.0032 5.96813 3.02244 6.01833 3.05593ZM6.16667 15.1092V16.0432L6.94394 15.5252L14.6106 10.4161L15.235 10L14.6106 9.58393L6.94394 4.47476L6.16667 3.95677V4.89084V15.1092Z" fill="black" stroke="#C7C7C7"/>
</g>
</svg>
